{"title":"Madonna Sticky and Sweet Tour Live in Buenos Aires Broadcast.mp4","uid":4988253,"size":701358295,"categoryP":"video","categoryS":"music_videos","magnet":"?xt=urn:btih:5169aa9d3c59643cfbc07cbca3dd1d03cd7676b2&amp;dn=Madonna+Sticky+and+Sweet+Tour+Live+in+Buenos+Aires+Broadcast.mp4&amp;tr=udp%3A%2F%2Ftracker.openbittorrent.com%3A80&amp;tr=udp%3A%2F%2Fopen.demonii.com%3A1337&amp;tr=udp%3A%2F%2Ftracker.coppersurfer.tk%3A6969&amp;tr=udp%3A%2F%2Fexodus.desync.com%3A6969","seeders":0,"leechers":1,"uploader":"pesoberbo","files":1,"time":1246890397,"description":"      Arquivo com qualidade media, em breve um novo torrent em hd\n\n      Format : MPEG-4\n      File size : 669 MiB\n      Duration : 1h 51mn\n      Overall bit rate : 840 Kbps\n      Format : AVC\n      Format/Info : Advanced Video Codec\n      Format settings, ReFrames : 2 frames\n      Codec ID/Info : Advanced Video Coding\n      Bit rate mode : Variable\n      Bit rate : 707 Kbps\n      Width : 720 pixels\n      Height : 420 pixels\n      Display aspect ratio : 16/9\n      Standard : NTSC\n      Resolution : 24 bits\n      Colorimetry : 4:2:0\n      Scan type : Interlaced\n      Scan order : Bottom Field First\n      Bits/(Pixel*Frame) : 0.039\n      Stream size : 563 MiB (84%)\n      Language : English\n\n      Format : AAC\n      Format/Info : Advanced Audio Codec\n      Format version : Version 4\n      Format profile : LC\n      Duration : 1h 51mn\n      Bit rate mode : Constant\n      Bit rate : 128 Kbps\n      Channel(s) : 2 channels\n      Channel positions : L R\n      Sampling rate : 44.1 KHz\n      Resolution : 16 bits\n      Stream size : 102 MiB (15%)\n      Language : English\n","torrent":{"xt":"urn:btih:5169aa9d3c59643cfbc07cbca3dd1d03cd7676b2","amp;dn":"Madonna+Sticky+and+Sweet+Tour+Live+in+Buenos+Aires+Broadcast.mp4","amp;tr":["udp%3A%2F%2Ftracker.openbittorrent.com%3A80","udp%3A%2F%2Fopen.demonii.com%3A1337","udp%3A%2F%2Ftracker.coppersurfer.tk%3A6969","udp%3A%2F%2Fexodus.desync.com%3A6969"],"infoHash":"5169aa9d3c59643cfbc07cbca3dd1d03cd7676b2","infoHashBuffer":{"type":"Buffer","data":[81,105,170,157,60,89,100,60,251,192,124,188,163,221,29,3,205,118,118,178]},"announce":[],"urlList":[]}}